<svg width="16" height="16" viewBox="0 0 582 862" fill="none" xmlns="http://www.w3.org/2000/svg">
<path d="M20.1 333.1L276.9 21.6C284.2 12.7 297.8 12.7 305.2 21.6L562 333.1C571.8 345 563.4 363.1 547.9 363.1H34.2C18.7 363.1 10.2 345.1 20.1 333.1Z" fill="#9ca3af"/>
<path d="M30.7 343.7C37 336.1 43.3 328.5 49.5 320.8C65.2 301.7 80.9 282.7 96.7 263.6C117.1 238.9 137.4 214.2 157.8 189.5C178.4 164.6 198.9 139.6 219.5 114.7C235.5 95.3 251.4 76 267.4 56.6C274.1 48.5 280.6 40.2 287.5 32.3C287.8 31.9 290.1 29.8 288.9 30.7C287.5 31.8 292 29.4 290 30.1C288.7 30.6 293.9 30.1 290.4 30.1C293.4 30.1 288.4 30 291.4 30.1C291.6 30.1 293.7 30.8 292 30.2C290.1 29.5 292.6 30.5 292.5 30.5C292.7 30.5 294.5 31.9 293.1 30.8C291.8 29.8 293.5 31.2 293.6 31.4C293.9 31.7 294.2 32.1 294.5 32.4C295 33 295.5 33.6 296 34.2C299.4 38.3 302.8 42.4 306.1 46.5C320.1 63.5 334.1 80.5 348.1 97.5C367.8 121.4 387.5 145.3 407.2 169.2C428.1 194.6 449.1 220 470 245.4C487.4 266.5 504.8 287.6 522.2 308.7C531.4 319.8 540.5 331 549.7 342.1C550.1 342.6 550.6 343.3 551.1 343.8C551.2 343.8 548.6 340.5 549.9 342.3C550.2 342.8 550.5 343.4 550.9 343.9C550.7 343.7 550.3 341.5 550.6 343C550.7 343.5 550.9 344.1 551.1 344.7C551.8 347 551.5 342.8 551 345.2C550.9 345.6 550.6 347.4 551 345.4C551.6 343.1 550.8 345.9 550.7 346.1C549.8 347.4 551.1 345.3 551.2 345.1C550.9 345.6 550.7 346.1 550.4 346.6C550.1 347.1 549.8 347.5 549.5 348C549.8 347.5 550.3 346 550.1 347.1C550 347.4 549.1 348 548.9 348.3C549.3 347.9 550.2 346.6 549.7 347.6C549.5 347.9 548.5 348.2 548.2 348.4C549.1 347.8 550.2 347.6 548.5 348.1C546 348.9 550.4 348.3 547.6 348.2C547.5 348.2 547.5 348.2 547.4 348.2C547 348.2 546.7 348.2 546.3 348.2C544.9 348.2 543.4 348.2 542 348.2C527.4 348.2 512.7 348.2 498.1 348.2C472.9 348.2 447.6 348.2 422.4 348.2C390.8 348.2 359.3 348.2 327.7 348.2C294.5 348.2 261.2 348.2 228 348.2C197.6 348.2 167.3 348.2 136.9 348.2C114 348.2 91 348.2 68.1 348.2C57.1 348.2 46.2 348.3 35.2 348.2C34.9 348.2 34.6 348.2 34.3 348.2C34.2 348.2 34.2 348.2 34.1 348.2C33.9 348.2 34.1 348.1 33.4 348.2C31.8 348.4 33.9 348.3 34.3 348.4C34 348.3 32.7 348.2 32.6 348C32.3 347.4 32.6 347.9 33.5 348.5C33.2 348.3 32.2 348 32 347.7C31.5 346.7 32.4 348 32.8 348.4C32.6 348.1 31.7 347.6 31.6 347.2C31.4 346.1 31.9 347.6 32.2 348.1C31.9 347.6 31.6 347.2 31.3 346.7C31 346.2 30.8 345.7 30.5 345.2C30.6 345.4 31.9 347.5 31 346.2C30.7 345.8 30.8 345.1 30.6 344.6C30.6 344.6 30.9 347.6 30.8 345.8C30.8 345.3 30.9 344.6 30.8 344.1C30.9 344.4 30 346.8 30.6 345.3C30.8 344.7 31.9 341.7 31.1 343.2C30.3 344.8 32.6 341.2 32.9 340.8C37.9 334.4 33.9 324 27.5 320.3C19.8 315.8 11.9 319.2 7.00001 325.7C-1.19999 336.4 -1.19999 352.7 6.60001 363.6C13.2 372.8 22.9 377.9 34.3 378.2C37.1 378.3 39.8 378.2 42.6 378.2C59.2 378.2 75.8 378.2 92.3 378.2C119.4 378.2 146.5 378.2 173.5 378.2C206.3 378.2 239.1 378.2 271.9 378.2C305.8 378.2 339.6 378.2 373.5 378.2C403.2 378.2 433 378.2 462.7 378.2C483.7 378.2 504.6 378.2 525.6 378.2C535.6 378.2 548.6 379.9 558.3 376.5C571.8 371.7 581.6 358.7 581.1 344.1C580.8 335.6 577.4 328.7 572.2 322.3C569.7 319.2 567.1 316.1 564.5 313C551.3 297 538.2 281 525 265.1C505.1 241 485.2 216.8 465.3 192.7C443.9 166.7 422.4 140.7 401 114.7C382.9 92.8 364.8 70.8 346.7 48.9C336.9 37 327.1 25.1 317.3 13.3C307.9 1.9 292.4 -3 278.4 2.8C271.5 5.7 267 10.3 262.5 15.8C251.3 29.4 240.1 43 228.9 56.6C210.1 79.4 191.2 102.3 172.4 125.1C150.8 151.3 129.2 177.5 107.6 203.7C88.4 227 69.2 250.2 50.1 273.5C38.2 287.9 26.3 302.3 14.5 316.7C12.8 318.7 11.2 320.7 9.50001 322.7C4.40001 328.9 3.40001 337.8 9.50001 343.9C14.8 349 25.5 350 30.7 343.7Z" fill="#9ca3af"/>
<path d="M20.1 528.8L276.9 840.3C284.2 849.2 297.8 849.2 305.2 840.3L562 528.8C571.8 516.9 563.4 498.8 547.9 498.8H34.2C18.7 498.8 10.2 516.8 20.1 528.8Z" fill="#9ca3af"/>
<path d="M9.5 539.4C16 547.3 22.5 555.2 29.1 563.1C45.4 582.9 61.8 602.7 78.1 622.5C99.1 648 120.1 673.4 141.1 698.9C161.9 724.1 182.6 749.3 203.4 774.4C219 793.3 234.6 812.2 250.2 831.2C258.9 841.8 267.7 856.1 281.5 860.4C295.1 864.6 309 859 317.7 848.5C321.3 844.1 324.9 839.8 328.5 835.4C343.2 817.5 358 799.6 372.7 781.8C393.1 757 413.6 732.2 434 707.4C455.2 681.7 476.4 655.9 497.6 630.2C514.7 609.5 531.8 588.8 548.9 568C556.7 558.5 564.6 549.2 572.3 539.6C577.8 532.8 581.5 525.1 581.1 516.2C580.5 501.6 570.4 488.3 556.1 484.8C551.5 483.7 547.1 483.8 542.4 483.8C527.4 483.8 512.4 483.8 497.3 483.8C471.2 483.8 445.1 483.8 419 483.8C386.6 483.8 354.2 483.8 321.9 483.8C288.1 483.8 254.2 483.8 220.4 483.8C189.8 483.8 159.2 483.8 128.6 483.8C106.4 483.8 84.1 483.8 61.9 483.8C52.7 483.8 43.5 483.5 34.3 483.8C22.8 484.1 12.9 489.4 6.39999 498.9C-1.10001 509.8 -1.00001 525.8 7.19999 536.4C12.1 542.8 20.1 546.2 27.7 541.8C34 538.1 38.1 527.7 33.1 521.3C32.4 520.3 31.8 519.1 31 518.2C31.2 518.4 31.6 520.6 31.3 519.1C31.2 518.6 31 518 30.8 517.4C30.1 515.1 30.4 519.3 30.9 516.9C31 516.5 31.3 514.7 30.9 516.7C30.3 519 31.1 516.2 31.2 516C32.1 514.7 30.8 516.8 30.7 517C31 516.5 31.2 516 31.5 515.5C31.8 515 32.1 514.6 32.4 514.1C32.1 514.6 31.6 516.1 31.8 515C31.9 514.7 32.8 514.1 33 513.8C32.6 514.2 31.7 515.5 32.2 514.5C32.4 514.2 33.4 513.9 33.7 513.7C32.8 514.3 31.7 514.5 33.4 514C35.9 513.2 31.5 513.8 34.3 513.9C34.4 513.9 34.4 513.9 34.5 513.9C34.8 513.9 35.2 513.9 35.5 513.9C39.3 513.9 43.2 513.9 47 513.9C64.7 513.9 82.5 513.9 100.2 513.9C127.4 513.9 154.6 513.9 181.8 513.9C214.2 513.9 246.6 513.9 279 513.9C312 513.9 344.9 513.9 377.9 513.9C406.8 513.9 435.8 513.9 464.7 513.9C485.1 513.9 505.5 513.9 525.9 513.9C531.4 513.9 537 513.9 542.5 513.9C543.9 513.9 545.3 513.9 546.6 513.9C546.9 513.9 547.2 513.9 547.6 513.9C547.7 513.9 547.7 513.9 547.8 513.9C548.2 513.9 548.7 514 549.1 513.9C545.7 514 550.6 514.6 549.1 514C546.8 513.1 551.8 515.8 549.7 514.3C547.6 512.8 551.9 516.7 550.2 514.7C548.9 513.2 550.8 516 551.1 516.4C552 517.6 550.7 515.7 550.7 515.4C550.8 516 551 517 551.3 517.5C551.3 517.5 551 514.5 551.1 516.3C551.1 516.8 551 517.5 551.1 518C551 517.7 551.9 515.3 551.3 516.8C551.1 517.3 551 518 550.9 518.5C550.8 518.9 550 520.4 550.8 518.9C551.7 517.2 550.5 519 550.5 519.2C550.5 519.8 548.5 521.3 550.6 519.2C556.1 513.8 551.6 518 551.4 518.2C550.8 518.7 550.4 519.5 549.9 520.1C546.6 524.1 543.2 528.2 539.9 532.2C525.9 549.1 512 566.1 498 583C478.2 607 458.4 631 438.6 655.1C417.7 680.5 396.7 705.9 375.8 731.3C358.4 752.4 341 773.5 323.6 794.6C314.4 805.7 305.3 816.9 296.1 828C295.6 828.6 295.2 829.1 294.7 829.7C294.1 830.4 293.5 831 292.8 831.7C294.5 830.1 292.5 831.8 291.5 832.3C293.8 831.2 291.4 832.1 290.3 832.3C290.5 832.3 292.9 832 291.2 832C288.9 832 293.7 832.2 291.4 832.2C290.8 832.2 290.1 831.9 289.6 831.7C289.8 831.7 291.9 832.7 290.2 832C289.6 831.7 289.1 831.4 288.5 831C288.8 831.2 290.1 832.5 289 831.3C288.5 830.8 288 830.3 287.6 829.7C285.6 827.4 283.7 824.9 281.7 822.5C269.7 807.9 257.6 793.3 245.6 778.7C226.7 755.8 207.8 732.8 188.9 709.9C167.8 684.3 146.7 658.7 125.6 633.1C107 610.5 88.4 588 69.8 565.4C58.4 551.5 47 537.7 35.5 523.8C33.9 521.9 32.4 520 30.8 518.1C25.6 511.8 14.9 512.8 9.6 518.1C3.3 524.3 4.3 533.1 9.5 539.4Z" fill="#9ca3af"/>
</svg>
